<?xml version="1.0" encoding="UTF-8"?><svg xmlns="http://www.w3.org/2000/svg" xmlns:xlink="http://www.w3.org/1999/xlink" data-name="Layer 1" height="8.0" preserveAspectRatio="xMidYMid meet" version="1.0" viewBox="32.7 146.0 1334.5 8.0" width="1334.5" zoomAndPan="magnify"><defs><linearGradient gradientUnits="userSpaceOnUse" id="a" x1="32.85" x2="1367.15" xlink:actuate="onLoad" xlink:show="other" xlink:type="simple" xmlns:xlink="http://www.w3.org/1999/xlink" y1="150" y2="150"><stop offset="0" stop-color="#ec1940"/><stop offset=".06" stop-color="#ee3138"/><stop offset=".18" stop-color="#f26e24"/><stop offset=".2" stop-color="#f37c20"/><stop offset=".29" stop-color="#f6a913"/><stop offset=".41" stop-color="#faec00"/><stop offset=".52" stop-color="#6dca2b"/><stop offset=".61" stop-color="#00af4c"/><stop offset=".8" stop-color="#5e56a4"/><stop offset="1" stop-color="#94268a"/></linearGradient></defs><path d="M41.85,154h-5a4,4,0,1,1,0-8h5a4,4,0,0,1,0,8Zm1300.2-4a4,4,0,0,0-4-4h-10a4,4,0,0,0,0,8h10A4,4,0,0,0,1342.05,150Zm-30.14,0a4,4,0,0,0-4-4h-10.05a4,4,0,0,0,0,8h10.05A4,4,0,0,0,1311.91,150Zm-30.15,0a4,4,0,0,0-4-4h-10a4,4,0,0,0,0,8h10A4,4,0,0,0,1281.76,150Zm-30.14,0a4,4,0,0,0-4-4h-10a4,4,0,0,0,0,8h10A4,4,0,0,0,1251.62,150Zm-30.15,0a4,4,0,0,0-4-4h-10a4,4,0,0,0,0,8h10A4,4,0,0,0,1221.47,150Zm-30.14,0a4,4,0,0,0-4-4h-10a4,4,0,0,0,0,8h10A4,4,0,0,0,1191.33,150Zm-30.15,0a4,4,0,0,0-4-4h-10a4,4,0,0,0,0,8h10A4,4,0,0,0,1161.18,150ZM1131,150a4,4,0,0,0-4-4h-10a4,4,0,0,0,0,8h10A4,4,0,0,0,1131,150Zm-30.14,0a4,4,0,0,0-4-4h-10.05a4,4,0,0,0,0,8h10.05A4,4,0,0,0,1100.9,150Zm-30.15,0a4,4,0,0,0-4-4h-10a4,4,0,0,0,0,8h10A4,4,0,0,0,1070.75,150Zm-30.14,0a4,4,0,0,0-4-4h-10a4,4,0,0,0,0,8h10A4,4,0,0,0,1040.61,150Zm-30.15,0a4,4,0,0,0-4-4h-10a4,4,0,0,0,0,8h10A4,4,0,0,0,1010.46,150Zm-30.14,0a4,4,0,0,0-4-4H966.27a4,4,0,0,0,0,8h10.05A4,4,0,0,0,980.32,150Zm-30.14,0a4,4,0,0,0-4-4h-10a4,4,0,0,0,0,8h10A4,4,0,0,0,950.18,150ZM920,150a4,4,0,0,0-4-4H906a4,4,0,0,0,0,8h10A4,4,0,0,0,920,150Zm-30.14,0a4,4,0,0,0-4-4h-10a4,4,0,0,0,0,8h10A4,4,0,0,0,889.89,150Zm-30.15,0a4,4,0,0,0-4-4h-10a4,4,0,0,0,0,8h10A4,4,0,0,0,859.74,150Zm-30.14,0a4,4,0,0,0-4-4H815.55a4,4,0,0,0,0,8H825.6A4,4,0,0,0,829.6,150Zm-30.14,0a4,4,0,0,0-4-4H785.41a4,4,0,0,0,0,8h10.05A4,4,0,0,0,799.46,150Zm-30.15,0a4,4,0,0,0-4-4h-10a4,4,0,0,0,0,8h10A4,4,0,0,0,769.31,150Zm-30.14,0a4,4,0,0,0-4-4h-10a4,4,0,0,0,0,8h10A4,4,0,0,0,739.17,150ZM709,150a4,4,0,0,0-4-4H695a4,4,0,0,0,0,8h10A4,4,0,0,0,709,150Zm-30.14,0a4,4,0,0,0-4-4h-10a4,4,0,0,0,0,8h10A4,4,0,0,0,678.88,150Zm-30.14,0a4,4,0,0,0-4-4h-10a4,4,0,0,0,0,8h10A4,4,0,0,0,648.74,150Zm-30.15,0a4,4,0,0,0-4-4H604.54a4,4,0,0,0,0,8h10.05A4,4,0,0,0,618.59,150Zm-30.14,0a4,4,0,0,0-4-4H574.4a4,4,0,0,0,0,8h10.05A4,4,0,0,0,588.45,150Zm-30.15,0a4,4,0,0,0-4-4h-10a4,4,0,0,0,0,8h10A4,4,0,0,0,558.3,150Zm-30.14,0a4,4,0,0,0-4-4h-10a4,4,0,0,0,0,8h10A4,4,0,0,0,528.16,150ZM498,150a4,4,0,0,0-4-4H484a4,4,0,0,0,0,8h10A4,4,0,0,0,498,150Zm-30.15,0a4,4,0,0,0-4-4H453.82a4,4,0,1,0,0,8h10.05A4,4,0,0,0,467.87,150Zm-30.14,0a4,4,0,0,0-4-4H423.68a4,4,0,0,0,0,8h10.05A4,4,0,0,0,437.73,150Zm-30.15,0a4,4,0,0,0-4-4h-10a4,4,0,1,0,0,8h10A4,4,0,0,0,407.58,150Zm-30.14,0a4,4,0,0,0-4-4H363.39a4,4,0,0,0,0,8h10.05A4,4,0,0,0,377.44,150Zm-30.14,0a4,4,0,0,0-4-4H333.25a4,4,0,0,0,0,8H343.3A4,4,0,0,0,347.3,150Zm-30.15,0a4,4,0,0,0-4-4h-10a4,4,0,0,0,0,8h10A4,4,0,0,0,317.15,150ZM287,150a4,4,0,0,0-4-4H273a4,4,0,0,0,0,8H283A4,4,0,0,0,287,150Zm-30.15,0a4,4,0,0,0-4-4h-10a4,4,0,0,0,0,8h10A4,4,0,0,0,256.86,150Zm-30.14,0a4,4,0,0,0-4-4H212.67a4,4,0,1,0,0,8h10.05A4,4,0,0,0,226.72,150Zm-30.14,0a4,4,0,0,0-4-4H182.53a4,4,0,1,0,0,8h10.05A4,4,0,0,0,196.58,150Zm-30.15,0a4,4,0,0,0-4-4H152.38a4,4,0,0,0,0,8h10.05A4,4,0,0,0,166.43,150Zm-30.14,0a4,4,0,0,0-4-4h-10a4,4,0,0,0,0,8h10A4,4,0,0,0,136.29,150Zm-30.15,0a4,4,0,0,0-4-4h-10a4,4,0,0,0,0,8h10A4,4,0,0,0,106.14,150ZM76,150a4,4,0,0,0-4-4H62a4,4,0,1,0,0,8H72A4,4,0,0,0,76,150Zm1291.15,0a4,4,0,0,0-4-4h-5a4,4,0,0,0,0,8h5A4,4,0,0,0,1367.15,150Z" fill="url(#a)"/></svg>